<svg style="position: absolute; width: 0; height: 0; overflow: hidden;" version="1.1" xmlns="http://www.w3.org/2000/svg" xmlns:xlink="http://www.w3.org/1999/xlink">
<defs>
<symbol id="cloud-right" viewBox="0 0 564 145">
<path fill-rule="evenodd" clip-rule="evenodd" d="M126 14.5C126 6.49188 132.492 0 140.5 0H549.5C557.508 0 564 6.49188 564 14.5C564 22.5081 557.508 29 549.5 29H414.5H294.5H217.5C209.492 29 203 35.4919 203 43.5C203 51.5081 209.492 58 217.5 58H294.5H373.5C381.508 58 388 64.4919 388 72.5C388 80.5081 381.508 87 373.5 87H337.5H270.5C262.492 87 256 93.4919 256 101.5C256 109.508 262.492 116 270.5 116H301.5C309.508 116 316 122.492 316 130.5C316 138.508 309.508 145 301.5 145H14.5C6.49182 145 0 138.508 0 130.5C0 122.492 6.49182 116 14.5 116H140.5H205.5C213.508 116 220 109.508 220 101.5C220 93.4919 213.508 87 205.5 87H176.5C168.492 87 162 80.5081 162 72.5C162 64.4919 168.492 58 176.5 58H97.5C89.4918 58 83 51.5081 83 43.5C83 35.4919 89.4918 29 97.5 29H140.5C132.492 29 126 22.5081 126 14.5Z"/>
</symbol>
</defs>
</svg>
