<svg style="position: absolute; width: 0; height: 0; overflow: hidden;" version="1.1" xmlns="http://www.w3.org/2000/svg" xmlns:xlink="http://www.w3.org/1999/xlink">
<defs>
<symbol id="cloud-left" viewBox="0 0 438 145">>
<path fill-rule="evenodd" clip-rule="evenodd" d="M0 14.5C0 6.49188 6.49187 0 14.5 0H423.5C431.508 0 438 6.49188 438 14.5C438 22.5081 431.508 29 423.5 29H313.5C321.508 29 328 35.4919 328 43.5C328 51.5081 321.508 58 313.5 58H392.5C400.508 58 407 64.4919 407 72.5C407 80.5081 400.508 87 392.5 87H356.5H289.5C281.492 87 275 93.4919 275 101.5C275 109.508 281.492 116 289.5 116H320.5C328.508 116 335 122.492 335 130.5C335 138.508 328.508 145 320.5 145H123.5C115.492 145 109 138.508 109 130.5C109 122.492 115.492 116 123.5 116H159.5H224.5C232.508 116 239 109.508 239 101.5C239 93.4919 232.508 87 224.5 87H195.5C187.492 87 181 80.5081 181 72.5C181 64.4919 187.492 58 195.5 58H263.5C271.508 58 278 51.5081 278 43.5C278 35.4919 271.508 29 263.5 29H116.5H66.5H14.5C6.49187 29 0 22.5081 0 14.5Z"/>
</symbol>
</defs>
</svg>
