<svg width="364" height="168" viewBox="0 0 364 168" fill="none" xmlns="http://www.w3.org/2000/svg">
<path fill-rule="evenodd" clip-rule="evenodd" d="M0 90.8108L0 92.3243C30.5302 92.313 60.9701 77.0388 91.3114 46.6973C121.499 16.5095 151.588 1.51352 181.587 1.51352C211.585 1.51352 241.674 16.5095 271.862 46.6973C302.214 77.05 332.666 92.3243 363.207 92.3243C363.471 92.3243 363.736 92.3232 364 92.3209V90.8073C363.736 90.8096 363.471 90.8108 363.207 90.8108C333.209 90.8108 303.12 75.8148 272.932 45.6271C242.579 15.2743 212.128 0 181.587 0C151.045 0 120.594 15.2743 90.2412 45.6271C60.065 75.8034 29.9873 90.7995 0 90.8108ZM364 105.942C363.736 105.945 363.471 105.946 363.207 105.946C333.209 105.946 303.12 90.95 272.932 60.7622C242.579 30.4094 212.128 15.1351 181.587 15.1351C151.045 15.1351 120.594 30.4094 90.2412 60.7622C60.065 90.9386 29.9873 105.935 0 105.946L0 107.459C30.5302 107.448 60.9701 92.1739 91.3114 61.8324C121.499 31.6446 151.588 16.6487 181.587 16.6487C211.585 16.6487 241.674 31.6446 271.862 61.8324C302.214 92.1852 332.666 107.459 363.207 107.459C363.471 107.459 363.736 107.458 364 107.456V105.942ZM364 121.078C363.736 121.08 363.471 121.081 363.207 121.081C333.209 121.081 303.12 106.085 272.932 75.8973C242.579 45.5446 212.128 30.2703 181.587 30.2703C151.045 30.2703 120.594 45.5446 90.2412 75.8973C60.065 106.074 29.9873 121.07 0 121.081V122.595C30.5302 122.583 60.9701 107.309 91.3114 76.9675C121.499 46.7798 151.588 31.7838 181.587 31.7838C211.585 31.7838 241.674 46.7798 271.862 76.9675C302.214 107.32 332.666 122.595 363.207 122.595C363.471 122.595 363.736 122.593 364 122.591V121.078ZM364 136.213C363.736 136.215 363.471 136.216 363.207 136.216C333.209 136.216 303.12 121.22 272.932 91.0325C242.579 60.6797 212.128 45.4054 181.587 45.4054C151.045 45.4054 120.594 60.6797 90.2412 91.0325C60.065 121.209 29.9873 136.205 0 136.216L0 137.73C30.5302 137.718 60.9701 122.444 91.3114 92.1027C121.499 61.9149 151.588 46.9189 181.587 46.9189C211.585 46.9189 241.674 61.9149 271.862 92.1027C302.214 122.455 332.666 137.73 363.207 137.73C363.471 137.73 363.736 137.729 364 137.726V136.213ZM364 151.348C363.736 151.35 363.471 151.351 363.207 151.351C333.209 151.351 303.12 136.355 272.932 106.168C242.579 75.8148 212.128 60.5405 181.587 60.5405C151.045 60.5405 120.594 75.8148 90.2412 106.168C60.065 136.344 29.9873 151.34 0 151.351V152.865C30.5302 152.854 60.9701 137.579 91.3114 107.238C121.499 77.05 151.588 62.0541 181.587 62.0541C211.585 62.0541 241.674 77.05 271.862 107.238C302.214 137.591 332.666 152.865 363.207 152.865C363.471 152.865 363.736 152.864 364 152.861V151.348ZM364 166.483C363.736 166.485 363.471 166.486 363.207 166.486C333.209 166.486 303.12 151.491 272.932 121.303C242.579 90.95 212.128 75.6757 181.587 75.6757C151.045 75.6757 120.594 90.95 90.2412 121.303C60.065 151.479 29.9873 166.475 0 166.486L0 168C30.5302 167.989 60.9701 152.714 91.3114 122.373C121.499 92.1852 151.588 77.1892 181.587 77.1892C211.585 77.1892 241.674 92.1852 271.862 122.373C302.214 152.726 332.666 168 363.207 168C363.471 168 363.736 167.999 364 167.997V166.483Z" fill="#8C7252"/>
</svg>
